<?xml version="1.0" encoding="utf-8"?>
<!-- Generator: Adobe Illustrator 21.0.2, SVG Export Plug-In . SVG Version: 6.00 Build 0)  -->
<svg version="1.1" id="Layer_1" xmlns="http://www.w3.org/2000/svg" xmlns:xlink="http://www.w3.org/1999/xlink" x="0px" y="0px"
	 viewBox="0 0 300 55.1" style="enable-background:new 0 0 300 55.1;" xml:space="preserve">
<style type="text/css">
	.st0{fill:#2D4486;}
	.st1{fill:#FFFFFF;}
	.st2{fill:#273B74;}
</style>
<g>
	<g>
		<g>
			<path class="st0" d="M4.8,0h290.3c1.4,0.2,2.7,0.8,3.6,1.9c0.8,1,1.2,2.3,1.3,3.6c0,14.6,0,29.3,0,43.9c0,1.5-0.6,3.1-1.8,4.2
				c-1,1-2.4,1.4-3.7,1.5H243c-1-0.3-2.1-0.1-3.1-0.2c-3.9,0-7.8,0-11.6,0c-4.6,0.1-9.3,0-13.9,0.1c-2.1,0-4.2-0.1-6.2,0.1h-81.6
				c-0.8-0.1-1.6-0.1-2.5-0.1c-4.4,0-8.8,0-13.2,0c-1.4,0-2.8,0-4.1-0.1c-4.9,0-9.8,0-14.7,0c-0.9,0-1.8-0.1-2.7,0.2H5.5
				c-1,0-2-0.2-2.9-0.8c-1.5-0.8-2.4-2.4-2.6-4.1V4.8C0.2,2.3,2.3,0.2,4.8,0z M222.9,18.4c0,5.3,0,10.6,0,15.9c0.8,0,1.6,0,2.4,0
				c0-0.5,0-1.1,0-1.6c0.5,1.1,1.7,1.7,2.8,1.8c1.1,0.1,2.4,0.1,3.4-0.4c1.1-0.5,1.8-1.5,2.3-2.6c0.6-1.5,0.7-3.1,0.4-4.6
				c-0.3-1.3-0.9-2.6-2-3.5c-1.1-0.8-2.6-1.1-3.9-1c-1.1,0.2-2.2,0.8-2.8,1.8c0-2,0-3.9,0-5.9C224.6,18.4,223.7,18.4,222.9,18.4z
				 M263,18.4c0,5.3,0,10.6,0,15.9c0.9,0,1.7,0,2.6,0c0-1.4,0-2.8,0-4.1c0.5-0.5,1-1,1.5-1.5c1.2,1.9,2.3,3.7,3.5,5.6
				c1,0,2.1,0,3.1,0c-1.6-2.4-3.2-4.9-4.8-7.3c1.5-1.4,2.9-2.8,4.4-4.2c-1.1,0-2.1,0-3.2,0c-1.5,1.5-3.1,3.1-4.6,4.6c0-3,0-6,0-9
				C264.7,18.4,263.8,18.4,263,18.4z M33.7,18.6c-1.1,0.1-2.2,0.6-2.7,1.6c-0.7,1.3-0.5,2.9-0.5,4.3c-0.6,0-1.3,0-1.9,0
				c0,1.1,0,2.1,0,3.2c0.6,0,1.3,0,1.9,0c0,3,0,6.1,0,9.1c1.3,0,2.5,0,3.8,0c0-3,0-6.1,0-9.1c0.8,0,1.7,0,2.5,0
				c0.1-1,0.2-2.1,0.3-3.2c-1,0-1.9,0-2.9,0c0-0.7,0-1.4,0-2.1c0-0.3,0.2-0.6,0.6-0.7c0.7-0.1,1.5-0.1,2.2-0.1c0-1.1,0-2.1,0-3.2
				C36,18.5,34.8,18.4,33.7,18.6z M59.9,18.4c0,5.3,0,10.6,0,15.9c3.6,0,7.3,0,10.9,0c0-0.8,0-1.6,0-2.4c-2.7,0-5.4,0-8.1,0
				c0-4.5,0-9,0-13.5C61.8,18.4,60.8,18.4,59.9,18.4z M98.9,18.4c0,0.8,0,1.6,0,2.5c0.9,0,1.7,0,2.6,0c0-0.8,0-1.6,0-2.5
				C100.6,18.4,99.7,18.4,98.9,18.4z M140.6,18.4c0,0.8,0,1.6,0,2.5c0.9,0,1.7,0,2.6,0c0-0.8,0-1.6,0-2.5
				C142.3,18.4,141.5,18.4,140.6,18.4z M153.3,18.4c0,5.3,0,10.6,0,15.9c0.9,0,1.7,0,2.6,0c0-2.3,0-4.5,0-6.8c0-0.8,0.3-1.6,0.8-2.2
				c0.8-0.9,2.2-1,3.2-0.5c0.8,0.4,1,1.5,1,2.3c0,2.4,0,4.9,0,7.3c0.9,0,1.7,0,2.6,0c0-2.3,0-4.6,0-6.8c0-1.2,0.1-2.4-0.6-3.5
				c-0.7-1.2-2.2-1.6-3.5-1.6c-1.4,0-2.7,0.7-3.5,1.8c0-2,0-3.9,0-5.9C155,18.4,154.2,18.4,153.3,18.4z M172.7,18.4
				c0,5.3,0,10.6,0,15.9c0.9,0,1.9,0,2.8,0c0-2.3,0-4.7,0-7c2.4,0,4.8,0,7.2,0c0-0.8,0-1.5,0-2.3c-2.4,0-4.8,0-7.2,0
				c0-1.4,0-2.8,0-4.1c2.7,0,5.5,0,8.2,0c0-0.8,0-1.6,0-2.5C180.1,18.4,176.4,18.4,172.7,18.4z M146.7,19.4c0,1.1,0,2.3,0,3.4
				c-0.6,0-1.3,0-1.9,0c0,0.6,0,1.3,0,1.9c0.6,0,1.3,0,1.9,0c0,2.3,0,4.5,0,6.8c0,0.9,0.1,2,1,2.5c1.2,0.7,2.6,0.4,3.9,0.4
				c0-0.7,0-1.3,0-2c-0.6,0-1.2,0.2-1.8-0.1c-0.5-0.2-0.5-0.9-0.5-1.4c0-2.1,0-4.1,0-6.2c0.8,0,1.5,0,2.3,0c0-0.6,0-1.3,0-1.9
				c-0.8,0-1.5,0-2.3,0c0-1.1,0-2.3,0-3.4C148.4,19.4,147.5,19.4,146.7,19.4z M76.3,22.6c-1.4,0.3-2.7,1.1-3.5,2.3
				c-0.9,1.3-1.1,3-0.9,4.5c0.1,1.4,0.7,2.7,1.7,3.7c1.1,1,2.6,1.5,4.1,1.5c1.4,0,2.9-0.4,3.9-1.3c1.1-0.9,1.7-2.3,1.9-3.6
				c0.2-1.4,0-3-0.6-4.3c-0.5-1-1.3-1.8-2.3-2.3C79.2,22.5,77.7,22.4,76.3,22.6z M85.8,25.2c-0.8,1.6-0.9,3.4-0.5,5.2
				c0.3,1.3,0.9,2.5,2,3.2c1.1,0.8,2.4,1,3.7,0.8c1.2-0.2,2.2-1,2.8-2c0,0.9,0.1,1.8-0.1,2.7c-0.1,0.8-0.7,1.5-1.4,1.7
				c-0.9,0.3-1.8,0.3-2.7,0.1c-0.8-0.2-1.3-0.8-1.5-1.6c-0.9,0-1.7,0-2.6,0c0.1,0.7,0.3,1.5,0.9,2c1,1.2,2.7,1.5,4.2,1.6
				c1.6,0,3.3-0.3,4.5-1.4c1-1,1.3-2.4,1.3-3.7c0-3.7,0-7.3,0-11c-0.9,0-1.7,0-2.6,0c0,0.5,0,1.1,0,1.6c-0.3-0.5-0.6-0.9-1-1.2
				c-1-0.7-2.3-0.8-3.4-0.6C87.7,22.8,86.4,23.8,85.8,25.2z M106.6,24.6c0-0.6,0-1.2,0-1.8c-0.8,0-1.6,0-2.4,0c0,3.9,0,7.7,0,11.6
				c0.9,0,1.7,0,2.6,0c0-2.3,0-4.6,0-6.8c0-0.8,0.3-1.6,0.8-2.2c0.8-0.9,2.2-1.1,3.3-0.5c0.8,0.5,0.9,1.5,1,2.3c0,2.4,0,4.8,0,7.3
				c0.9,0,1.7,0,2.6,0c0-2.7,0-5.4,0-8c0-1-0.3-2.1-1-2.8c-1-0.9-2.4-1.1-3.7-1C108.3,22.7,107.2,23.5,106.6,24.6z M187.7,23
				c-1.4,0.5-2.3,1.9-2.3,3.3c0.8,0,1.7,0,2.5,0c0.1-0.4,0.2-0.8,0.5-1.1c0.6-0.6,1.4-0.7,2.2-0.7c0.7,0,1.4,0.1,1.9,0.6
				c0.4,0.4,0.5,1.1,0.3,1.6c-0.2,0.5-0.9,0.7-1.4,0.8c-1.3,0.2-2.5,0.3-3.7,0.6c-1.1,0.2-2.1,0.9-2.5,1.9c-0.4,1.2-0.3,2.6,0.6,3.5
				c0.8,0.9,2.1,1.2,3.3,1.2c1.4,0,2.8-0.4,3.8-1.3c0.2,0.4,0.3,0.9,0.8,1.1c0.9,0.4,1.9,0.2,2.8,0c0-0.6,0-1.2,0-1.7
				c-0.3,0-0.7,0.1-1,0c-0.3-0.2-0.2-0.5-0.3-0.8c0-2.1,0-4.2,0-6.3c0-1.4-1.3-2.5-2.6-2.8C191,22.3,189.3,22.4,187.7,23z
				 M201.8,22.6c-1.3,0.3-2.6,1.1-3.3,2.2c-0.8,1.2-1.1,2.8-1,4.2c0.1,1.4,0.5,2.9,1.5,3.9c1,1.1,2.5,1.7,3.9,1.7
				c1.4,0.1,2.8-0.3,3.9-1.3c1-0.9,1.4-2.1,1.6-3.4c-0.9,0-1.7,0-2.6,0c-0.1,0.7-0.4,1.4-0.9,1.9c-0.7,0.7-1.8,0.9-2.8,0.6
				c-0.9-0.3-1.6-1.1-1.9-2c-0.4-1.1-0.4-2.2-0.2-3.3c0.2-1,0.8-2.1,1.8-2.5c1-0.4,2.3-0.4,3.2,0.4c0.4,0.4,0.6,1,0.7,1.5
				c0.9,0,1.7,0,2.6,0c-0.1-0.9-0.3-1.7-0.9-2.4C206.2,22.6,203.8,22.2,201.8,22.6z M211.4,24.3c-1.1,1.2-1.6,2.9-1.5,4.5
				c0,1.5,0.4,3,1.4,4.2c1,1.1,2.5,1.7,4,1.7c1.5,0.1,3.1-0.4,4.1-1.5c0.7-0.7,1.1-1.5,1.4-2.4c-0.8,0-1.6,0-2.4,0
				c-0.2,0.5-0.4,0.9-0.8,1.3c-0.9,0.8-2.3,0.8-3.4,0.3c-1.2-0.5-1.7-1.9-1.7-3.1c2.8,0,5.7,0,8.5,0c0.2-2.1-0.5-4.4-2.3-5.7
				C216.5,21.9,213.1,22.2,211.4,24.3z M240.4,22.6c-1.5,0.3-2.9,1.1-3.6,2.4c-0.8,1.3-1,3-0.9,4.5c0.2,1.3,0.7,2.7,1.7,3.6
				c1.1,1,2.6,1.5,4.1,1.5c1.5,0,3-0.5,4.1-1.5c1-0.9,1.5-2.3,1.7-3.6c0.1-1.4,0-2.8-0.6-4.1c-0.5-1-1.3-1.8-2.3-2.3
				C243.3,22.5,241.8,22.4,240.4,22.6z M253.6,22.6c-1.6,0.3-3.1,1.3-3.8,2.8c-0.7,1.4-0.8,2.9-0.6,4.4c0.2,1.4,0.8,2.7,1.9,3.6
				c1.1,0.9,2.5,1.3,3.9,1.2c1.4,0,2.9-0.5,4-1.5c1-0.9,1.6-2.3,1.7-3.6c0.1-1.4,0-2.9-0.6-4.1c-0.5-1-1.3-1.8-2.3-2.3
				C256.5,22.5,255,22.4,253.6,22.6z M98.9,22.8c0,3.9,0,7.7,0,11.6c0.9,0,1.7,0,2.6,0c0-3.9,0-7.7,0-11.6
				C100.6,22.8,99.7,22.8,98.9,22.8z M122.1,22.8c1.2,3.9,2.4,7.7,3.6,11.6c0.9,0,1.8,0,2.7,0c0.7-2.9,1.4-5.8,2.1-8.6
				c0.7,2.9,1.4,5.7,2.2,8.6c0.9,0,1.8,0,2.6,0c1.2-3.9,2.4-7.7,3.6-11.6c-0.9,0-1.7,0-2.6,0c-0.8,2.9-1.6,5.8-2.4,8.7
				c-0.7-2.9-1.4-5.8-2.1-8.7c-0.9,0-1.7,0-2.6,0c-0.7,2.9-1.4,5.8-2.2,8.7c-0.8-2.9-1.5-5.8-2.3-8.7
				C124,22.8,123.1,22.8,122.1,22.8z M140.6,22.8c0,3.9,0,7.7,0,11.6c0.9,0,1.7,0,2.6,0c0-3.9,0-7.7,0-11.6
				C142.3,22.8,141.5,22.8,140.6,22.8z"/>
		</g>
		<path class="st0" d="M76.9,24.6c0.9-0.2,1.9-0.1,2.6,0.6c1,0.8,1.4,2.1,1.4,3.3c0,1.2-0.3,2.6-1.3,3.5c-0.8,0.8-2.1,0.9-3.2,0.5
			c-0.9-0.4-1.5-1.1-1.8-2c-0.4-1.3-0.4-2.7,0.1-3.9C75.1,25.6,75.9,24.8,76.9,24.6z"/>
		<path class="st0" d="M89.9,24.6c1-0.2,2.1,0,2.8,0.7c0.8,0.8,1,2,1,3.2c0,1.1-0.3,2.4-1.2,3.2c-0.7,0.7-1.9,0.9-2.8,0.6
			c-0.9-0.3-1.5-1-1.8-1.8c-0.4-1.2-0.4-2.6,0-3.8C88.1,25.7,88.9,24.8,89.9,24.6z"/>
		<path class="st0" d="M213.4,25.3c1-1,2.8-1.1,3.9-0.2c0.7,0.6,1,1.5,1.1,2.4c-2,0-4,0-6,0C212.5,26.7,212.8,25.9,213.4,25.3z"/>
		<path class="st0" d="M227.7,24.6c0.8-0.2,1.8-0.1,2.5,0.4c1.1,0.8,1.5,2.2,1.5,3.4c0,1.2-0.2,2.5-1.1,3.4c-1.1,1.1-3.2,1-4.2-0.1
			c-1.1-1.2-1.2-2.9-0.9-4.3C225.6,26.1,226.4,24.8,227.7,24.6z"/>
		<path class="st0" d="M240.9,24.6c0.9-0.2,2-0.1,2.8,0.6c1,0.8,1.3,2.1,1.3,3.3c0,1.2-0.3,2.5-1.2,3.4c-1.2,1.1-3.3,1-4.3-0.2
			c-1-1.2-1.2-3-0.8-4.5C238.9,26,239.7,24.9,240.9,24.6z"/>
		<path class="st0" d="M254.2,24.6c0.9-0.2,1.9,0,2.6,0.6c1,0.8,1.3,2.1,1.4,3.3c0,1.2-0.3,2.6-1.3,3.5c-1.2,1.1-3.3,1-4.3-0.3
			c-1-1.2-1.2-3-0.8-4.5C252.1,25.9,253,24.8,254.2,24.6z"/>
		<path class="st0" d="M189.5,29.2c1.1-0.3,2.2-0.1,3.2-0.7c0,0.8,0.1,1.6-0.1,2.4c-0.3,1-1.4,1.6-2.4,1.7c-0.8,0.1-1.8,0-2.4-0.7
			c-0.4-0.4-0.4-1.2-0.1-1.7C188.1,29.6,188.9,29.4,189.5,29.2z"/>
	</g>
	<g>
		<g>
			<path class="st1" d="M222.9,18.4c0.9,0,1.7,0,2.6,0c0,2,0,3.9,0,5.9c0.7-0.9,1.7-1.6,2.8-1.8c1.4-0.2,2.8,0.1,3.9,1
				c1.1,0.8,1.7,2.1,2,3.5c0.3,1.5,0.2,3.1-0.4,4.6c-0.4,1.1-1.2,2.1-2.3,2.6c-1,0.6-2.3,0.6-3.4,0.4c-1.2-0.1-2.3-0.8-2.8-1.8
				c0,0.5,0,1.1,0,1.6c-0.8,0-1.6,0-2.4,0C222.9,29.1,222.9,23.7,222.9,18.4z M227.7,24.6c-1.3,0.3-2.1,1.6-2.3,2.8
				c-0.2,1.5-0.1,3.2,0.9,4.3c1.1,1.2,3.1,1.3,4.2,0.1c0.9-0.9,1.2-2.2,1.1-3.4c0-1.3-0.5-2.7-1.5-3.4
				C229.5,24.5,228.6,24.4,227.7,24.6z"/>
		</g>
		<path class="st1" d="M263,18.4c0.9,0,1.7,0,2.6,0c0,3,0,6,0,9c1.5-1.5,3.1-3.1,4.6-4.6c1,0,2.1,0,3.2,0c-1.5,1.4-2.9,2.8-4.4,4.2
			c1.6,2.4,3.2,4.9,4.8,7.3c-1,0-2.1,0-3.1,0c-1.2-1.9-2.4-3.7-3.5-5.6c-0.5,0.5-1,1-1.5,1.5c0,1.4,0,2.8,0,4.1c-0.9,0-1.7,0-2.6,0
			C263,29,263,23.7,263,18.4z"/>
		<path class="st1" d="M33.7,18.6c1.1-0.1,2.3,0,3.4-0.1c0,1,0,2.1,0,3.2c-0.7,0-1.5-0.1-2.2,0.1c-0.3,0.1-0.5,0.4-0.6,0.7
			c-0.1,0.7,0,1.4,0,2.1c1,0,1.9,0,2.9,0c-0.1,1-0.2,2.1-0.3,3.2c-0.8,0-1.7,0-2.5,0c0,3,0,6.1,0,9.1c-1.3,0-2.5,0-3.8,0
			c0-3,0-6.1,0-9.1c-0.6,0-1.3,0-1.9,0c0-1.1,0-2.1,0-3.2c0.6,0,1.3,0,1.9,0c0-1.4-0.2-3,0.5-4.3C31.5,19.2,32.6,18.7,33.7,18.6z"/>
		<path class="st1" d="M59.9,18.4c0.9,0,1.9,0,2.8,0c0,4.5,0,9,0,13.5c2.7,0,5.4,0,8.1,0c0,0.8,0,1.6,0,2.4c-3.6,0-7.3,0-10.9,0
			C59.9,29,59.9,23.7,59.9,18.4z"/>
		<path class="st1" d="M98.9,18.4c0.9,0,1.7,0,2.6,0c0,0.8,0,1.6,0,2.5c-0.9,0-1.7,0-2.6,0C98.9,20.1,98.9,19.3,98.9,18.4z"/>
		<path class="st1" d="M140.6,18.4c0.9,0,1.7,0,2.6,0c0,0.8,0,1.6,0,2.5c-0.9,0-1.7,0-2.6,0C140.6,20.1,140.6,19.3,140.6,18.4z"/>
		<path class="st1" d="M153.3,18.4c0.9,0,1.7,0,2.6,0c0,2,0,3.9,0,5.9c0.8-1.2,2.1-1.9,3.5-1.8c1.3,0,2.8,0.4,3.5,1.6
			c0.7,1,0.6,2.3,0.6,3.5c0,2.3,0,4.6,0,6.8c-0.9,0-1.7,0-2.6,0c0-2.4,0-4.9,0-7.3c0-0.8-0.2-1.9-1-2.3c-1-0.5-2.4-0.3-3.2,0.5
			c-0.6,0.6-0.8,1.4-0.8,2.2c0,2.3,0,4.5,0,6.8c-0.9,0-1.7,0-2.6,0C153.3,29.1,153.3,23.7,153.3,18.4z"/>
		<path class="st1" d="M172.7,18.4c3.7,0,7.4,0,11,0c0,0.8,0,1.6,0,2.5c-2.7,0-5.5,0-8.2,0c0,1.4,0,2.8,0,4.1c2.4,0,4.8,0,7.2,0
			c0,0.8,0,1.5,0,2.3c-2.4,0-4.8,0-7.2,0c0,2.3,0,4.7,0,7c-0.9,0-1.9,0-2.8,0C172.7,29.1,172.8,23.7,172.7,18.4z"/>
		<path class="st1" d="M146.7,19.4c0.9,0,1.7,0,2.6,0c0,1.1,0,2.3,0,3.4c0.8,0,1.5,0,2.3,0c0,0.6,0,1.3,0,1.9c-0.8,0-1.5,0-2.3,0
			c0,2.1,0,4.1,0,6.2c0,0.5,0,1.2,0.5,1.4c0.6,0.2,1.2,0.1,1.8,0.1c0,0.7,0,1.3,0,2c-1.3,0-2.7,0.3-3.9-0.4c-0.8-0.5-0.9-1.6-1-2.5
			c0-2.3,0-4.5,0-6.8c-0.6,0-1.3,0-1.9,0c0-0.6,0-1.3,0-1.9c0.6,0,1.3,0,1.9,0C146.7,21.6,146.7,20.5,146.7,19.4z"/>
		<g>
			<path class="st1" d="M76.3,22.6c1.4-0.2,2.9-0.1,4.2,0.5c1,0.5,1.8,1.3,2.3,2.3c0.7,1.3,0.8,2.8,0.6,4.3
				c-0.2,1.4-0.8,2.7-1.9,3.6c-1.1,0.9-2.5,1.4-3.9,1.3c-1.5,0-3-0.5-4.1-1.5c-1-1-1.5-2.3-1.7-3.7c-0.2-1.6,0.1-3.2,0.9-4.5
				C73.6,23.7,74.9,22.9,76.3,22.6z M76.9,24.6c-1,0.2-1.8,1-2.1,2c-0.5,1.2-0.5,2.7-0.1,3.9c0.3,0.9,0.9,1.7,1.8,2
				c1,0.4,2.3,0.2,3.2-0.5c0.9-0.9,1.3-2.2,1.3-3.5c0-1.2-0.4-2.5-1.4-3.3C78.8,24.5,77.8,24.4,76.9,24.6z"/>
		</g>
		<g>
			<path class="st1" d="M85.8,25.2c0.7-1.3,2-2.3,3.5-2.6c1.2-0.2,2.4-0.1,3.4,0.6c0.5,0.3,0.8,0.8,1,1.2c0-0.5,0-1.1,0-1.6
				c0.9,0,1.7,0,2.6,0c0,3.7,0,7.3,0,11c0,1.3-0.3,2.8-1.3,3.7c-1.2,1.1-2.9,1.4-4.5,1.4c-1.5,0-3.1-0.4-4.2-1.6
				c-0.5-0.6-0.8-1.3-0.9-2c0.9,0,1.7,0,2.6,0c0.2,0.8,0.8,1.4,1.5,1.6c0.9,0.2,1.8,0.2,2.7-0.1c0.8-0.3,1.3-1,1.4-1.7
				c0.2-0.9,0.1-1.8,0.1-2.7c-0.6,1-1.6,1.8-2.8,2c-1.3,0.2-2.6,0-3.7-0.8c-1.1-0.7-1.7-1.9-2-3.2C84.8,28.6,84.9,26.7,85.8,25.2z
				 M89.9,24.6c-1,0.2-1.7,1.1-2,2.1c-0.4,1.2-0.4,2.6,0,3.8c0.3,0.8,0.9,1.6,1.8,1.8c1,0.3,2.1,0.1,2.8-0.6c0.9-0.8,1.1-2,1.2-3.2
				c0-1.1-0.2-2.3-1-3.2C92,24.6,90.8,24.4,89.9,24.6z"/>
		</g>
		<path class="st1" d="M106.6,24.6c0.7-1,1.7-1.8,3-2c1.3-0.2,2.7,0.1,3.7,1c0.8,0.7,1,1.8,1,2.8c0,2.7,0,5.4,0,8
			c-0.9,0-1.7,0-2.6,0c0-2.4,0-4.8,0-7.3c0-0.8-0.2-1.8-1-2.3c-1-0.6-2.5-0.4-3.3,0.5c-0.5,0.6-0.8,1.4-0.8,2.2c0,2.3,0,4.6,0,6.8
			c-0.9,0-1.7,0-2.6,0c0-3.9,0-7.7,0-11.6c0.8,0,1.6,0,2.4,0C106.6,23.4,106.6,24,106.6,24.6z"/>
		<g>
			<path class="st1" d="M187.7,23c1.6-0.6,3.3-0.6,4.9-0.2c1.3,0.3,2.6,1.4,2.6,2.8c0,2.1,0,4.2,0,6.3c0,0.3,0,0.6,0.3,0.8
				c0.3,0.1,0.6,0.1,1,0c0,0.6,0,1.2,0,1.7c-0.9,0.2-1.9,0.5-2.8,0c-0.4-0.2-0.6-0.7-0.8-1.1c-1,0.9-2.5,1.3-3.8,1.3
				c-1.2,0-2.5-0.3-3.3-1.2c-0.9-0.9-1-2.4-0.6-3.5c0.4-1.1,1.4-1.7,2.5-1.9c1.2-0.3,2.5-0.4,3.7-0.6c0.5-0.1,1.1-0.3,1.4-0.8
				c0.2-0.5,0.1-1.2-0.3-1.6c-0.5-0.5-1.2-0.6-1.9-0.6c-0.8,0-1.6,0.1-2.2,0.7c-0.3,0.3-0.4,0.7-0.5,1.1c-0.9,0-1.7,0-2.5,0
				C185.4,24.9,186.4,23.5,187.7,23z M189.5,29.2c-0.7,0.1-1.5,0.4-1.8,1.1c-0.2,0.5-0.3,1.2,0.1,1.7c0.6,0.6,1.6,0.7,2.4,0.7
				c1-0.1,2.1-0.7,2.4-1.7c0.1-0.8,0-1.6,0.1-2.4C191.8,29.1,190.6,29,189.5,29.2z"/>
		</g>
		<path class="st1" d="M201.8,22.6c2-0.4,4.4,0,5.7,1.7c0.5,0.7,0.8,1.5,0.9,2.4c-0.9,0-1.7,0-2.6,0c-0.1-0.6-0.3-1.1-0.7-1.5
			c-0.8-0.8-2.1-0.8-3.2-0.4c-1,0.4-1.6,1.5-1.8,2.5c-0.2,1.1-0.2,2.3,0.2,3.3c0.3,0.9,1,1.7,1.9,2c0.9,0.3,2.1,0.1,2.8-0.6
			c0.5-0.5,0.7-1.2,0.9-1.9c0.9,0,1.7,0,2.6,0c-0.2,1.3-0.7,2.5-1.6,3.4c-1,1-2.5,1.3-3.9,1.3c-1.5,0-2.9-0.6-3.9-1.7
			c-1-1.1-1.4-2.5-1.5-3.9c-0.1-1.5,0.2-3,1-4.2C199.2,23.7,200.4,22.9,201.8,22.6z"/>
		<g>
			<path class="st1" d="M211.4,24.3c1.8-2.1,5.1-2.4,7.3-0.7c1.7,1.3,2.5,3.6,2.3,5.7c-2.8,0-5.7,0-8.5,0c0,1.2,0.5,2.6,1.7,3.1
				c1.1,0.5,2.4,0.4,3.4-0.3c0.4-0.3,0.6-0.8,0.8-1.3c0.8,0,1.6,0,2.4,0c-0.2,0.9-0.7,1.8-1.4,2.4c-1.1,1.1-2.6,1.5-4.1,1.5
				c-1.5,0-3-0.6-4-1.7c-1-1.1-1.4-2.7-1.4-4.2C209.8,27.1,210.3,25.5,211.4,24.3z M213.4,25.3c-0.6,0.6-0.9,1.4-1,2.2c2,0,4,0,6,0
				c-0.1-0.9-0.4-1.8-1.1-2.4C216.1,24.2,214.4,24.3,213.4,25.3z"/>
		</g>
		<g>
			<path class="st1" d="M240.4,22.6c1.4-0.2,2.9-0.1,4.2,0.5c1,0.5,1.8,1.3,2.3,2.3c0.6,1.3,0.8,2.7,0.6,4.1
				c-0.1,1.3-0.7,2.7-1.7,3.6c-1.1,1-2.6,1.5-4.1,1.5c-1.5,0-3-0.5-4.1-1.5c-1-0.9-1.6-2.3-1.7-3.6c-0.2-1.5,0-3.2,0.9-4.5
				C237.6,23.7,239,22.9,240.4,22.6z M240.9,24.6c-1.2,0.3-2,1.4-2.3,2.6c-0.4,1.5-0.2,3.3,0.8,4.5c1,1.2,3.1,1.3,4.3,0.2
				c0.9-0.9,1.2-2.2,1.2-3.4c0-1.2-0.4-2.5-1.3-3.3C242.9,24.5,241.8,24.4,240.9,24.6z"/>
		</g>
		<g>
			<path class="st1" d="M253.6,22.6c1.4-0.2,2.9-0.1,4.2,0.5c1,0.5,1.8,1.3,2.3,2.3c0.6,1.3,0.8,2.7,0.6,4.1
				c-0.2,1.4-0.7,2.7-1.7,3.6c-1.1,1-2.5,1.5-4,1.5c-1.4,0-2.8-0.4-3.9-1.2c-1.1-0.9-1.7-2.2-1.9-3.6c-0.2-1.5-0.1-3.1,0.6-4.4
				C250.5,23.9,252,22.9,253.6,22.6z M254.2,24.6c-1.2,0.3-2.1,1.4-2.3,2.5c-0.4,1.5-0.2,3.3,0.8,4.5c1,1.3,3.1,1.4,4.3,0.3
				c0.9-0.9,1.3-2.2,1.3-3.5c0-1.2-0.4-2.5-1.4-3.3C256.1,24.5,255.1,24.4,254.2,24.6z"/>
		</g>
		<path class="st1" d="M98.9,22.8c0.9,0,1.7,0,2.6,0c0,3.9,0,7.7,0,11.6c-0.9,0-1.7,0-2.6,0C98.9,30.5,98.9,26.7,98.9,22.8z"/>
		<path class="st1" d="M122.1,22.8c0.9,0,1.8,0,2.7,0c0.8,2.9,1.5,5.8,2.3,8.7c0.7-2.9,1.5-5.8,2.2-8.7c0.9,0,1.7,0,2.6,0
			c0.7,2.9,1.4,5.8,2.1,8.7c0.8-2.9,1.6-5.8,2.4-8.7c0.9,0,1.7,0,2.6,0c-1.2,3.8-2.4,7.7-3.6,11.6c-0.9,0-1.8,0-2.6,0
			c-0.7-2.9-1.4-5.7-2.2-8.6c-0.7,2.9-1.4,5.7-2.1,8.6c-0.9,0-1.8,0-2.7,0C124.5,30.5,123.3,26.6,122.1,22.8z"/>
		<path class="st1" d="M140.6,22.8c0.9,0,1.7,0,2.6,0c0,3.9,0,7.7,0,11.6c-0.9,0-1.7,0-2.6,0C140.6,30.5,140.6,26.6,140.6,22.8z"/>
	</g>
	<g>
		<path class="st2" d="M89.4,55.1c0.9-0.3,1.8-0.1,2.7-0.2c4.9,0,9.8,0,14.7,0c1.4,0.1,2.8,0.1,4.1,0.1c4.4,0,8.8,0,13.2,0
			c0.8,0,1.6,0,2.5,0.1H89.4z"/>
	</g>
	<g>
		<path class="st2" d="M208.1,55.1c2.1-0.2,4.2,0,6.2-0.1c4.6,0,9.3,0.1,13.9-0.1c3.9,0,7.8,0,11.6,0c1,0,2.1-0.1,3.1,0.2H208.1z"/>
	</g>
</g>
</svg>
